<?xml version="1.0" encoding="utf-8"?>
<!-- Generator: Adobe Illustrator 22.0.1, SVG Export Plug-In . SVG Version: 6.00 Build 0)  -->
<svg version="1.1" id="Layer_1" xmlns="http://www.w3.org/2000/svg" xmlns:xlink="http://www.w3.org/1999/xlink" x="0px" y="0px"
	 viewBox="0 0 512 512" style="enable-background:new 0 0 512 512;" xml:space="preserve">
<style type="text/css">
	.st0{fill:#b8481b;}
</style>
<path class="st0" d="M477,15H35C15.7,15,0,30.7,0,50v340c0,19.3,15.7,35,35,35h134.1L149,476.6c-1.8,4.6-1.2,9.8,1.6,13.9
	c2.8,4.1,7.4,6.5,12.4,6.5h186c5,0,9.6-2.4,12.4-6.5c2.8-4.1,3.4-9.3,1.6-13.9L342.9,425H477c19.3,0,35-15.7,35-35V50
	C512,30.7,496.3,15,477,15z M30,50c0-2.8,2.2-5,5-5h442c2.8,0,5,2.2,5,5v285H30V50z M327.1,467H184.9l16.4-42h109.3L327.1,467z
	 M482,390c0,2.8-2.2,5-5,5H35c-2.8,0-5-2.2-5-5v-25h452V390z"/>
<path class="st0" d="M432,275h-21v-80h21c6.9,0,13-4.8,14.6-11.5c1.6-6.7-1.6-13.7-7.8-16.9l-176-90c-4.3-2.2-9.4-2.2-13.7,0
	l-176,90c-6.2,3.2-9.4,10.1-7.8,16.9C67,190.3,73.1,195,80,195h21v80H80c-8.3,0-15,6.7-15,15s6.7,15,15,15h352c8.3,0,15-6.7,15-15
	S440.3,275,432,275z M256,106.8L369.7,165H142.3L256,106.8z M321,195v80H191v-80H321z M131,275v-80h30v80H131z M351,275v-80h30v80
	H351z"/>
</svg>
