<?xml version="1.0" encoding="utf-8"?>
<!-- Generator: Adobe Illustrator 22.0.1, SVG Export Plug-In . SVG Version: 6.00 Build 0)  -->
<svg version="1.1" id="Capa_1" xmlns="http://www.w3.org/2000/svg" xmlns:xlink="http://www.w3.org/1999/xlink" x="0px" y="0px"
	 viewBox="0 0 512 512" style="enable-background:new 0 0 512 512;" xml:space="preserve">
<style type="text/css">
	.st0{fill:#b8481b;}
</style>
<g>
	<g>
		<path class="st0" d="M180,332c-10.9,0-21.2,2.9-30,8.1c-9.1-5.2-19.4-8.1-30-8.1c-33.1,0-60,26.9-60,60s26.9,60,60,60
			c10.6,0,21-2.8,30-8.1c8.8,5.1,19.1,8.1,30,8.1c33.1,0,60-26.9,60-60S213.1,332,180,332z M127.5,421c-2.4,0.6-5,1-7.5,1
			c-16.5,0-30-13.5-30-30s13.5-30,30-30c2.6,0,5.1,0.3,7.5,1c-4.8,8.6-7.5,18.5-7.5,29S122.7,412.4,127.5,421z M180,422
			c-16.5,0-30-13.5-30-30s13.5-30,30-30s30,13.5,30,30S196.5,422,180,422z"/>
	</g>
</g>
<g>
	<g>
		<path class="st0" d="M377,422h-92c-8.3,0-15,6.7-15,15s6.7,15,15,15h92c8.3,0,15-6.7,15-15S385.3,422,377,422z"/>
	</g>
</g>
<g>
	<g>
		<path class="st0" d="M377,362h-92c-8.3,0-15,6.7-15,15s6.7,15,15,15h92c8.3,0,15-6.7,15-15S385.3,362,377,362z"/>
	</g>
</g>
<g>
	<g>
		<path class="st0" d="M467,0H105C80.2,0,60,20.1,60,44.9v107H45c-24.8,0-45,20.2-45,45v270c0,24.8,20.2,45,45,45h362
			c24.8,0,45-20.2,45-45V362h15c24.8,0,45-20.2,45-45V45C512,20.1,491.8,0,467,0z M422,467c0,8.3-6.7,15-15,15H45
			c-8.3,0-15-6.7-15-15V302h392V467z M422,272H30v-30h392V272z M422,211.9H30v-15c0-8.3,6.7-15,15-15h362c8.3,0,15,6.7,15,15V211.9z
			 M482,317c0,8.3-6.7,15-15,15h-15V197c0-24.8-20.2-44.9-45-44.9H90V90h392V317z M482,60H90V44.9c0-8.3,6.7-15,15-15h362
			c8.3,0,15,6.7,15,15V60z"/>
	</g>
</g>
</svg>
