<?xml version="1.0" encoding="utf-8"?>
<!-- Generator: Adobe Illustrator 22.0.1, SVG Export Plug-In . SVG Version: 6.00 Build 0)  -->
<svg version="1.1" id="Capa_1" xmlns="http://www.w3.org/2000/svg" xmlns:xlink="http://www.w3.org/1999/xlink" x="0px" y="0px"
	 viewBox="0 0 512 512" style="enable-background:new 0 0 512 512;" xml:space="preserve">
<style type="text/css">
	.st0{fill:#b8481b;}
</style>
<g>
	<path class="st0" d="M311.8,417h-80c-8.3,0-15,6.7-15,15s6.7,15,15,15h80c8.3,0,15-6.7,15-15S320.1,417,311.8,417z"/>
	<path class="st0" d="M457.4,14.4c-18.4-18.4-48-18.3-66.3-0.2l-0.3,0.3C390.6,6.5,384,0,375.8,0c-3.5,0-207.1,0-208.2,0
		c-1.9,0-3.7,0.4-5.6,1.2c-3.9,1.6,4.1-5.6-116.8,115.2c-2.7,2.7-4.4,6.5-4.4,10.6v370c0,8.3,6.7,15,15,15h320c8.3,0,15-6.7,15-15
		V150.2c25.8-25.8,8.2-7.5,66.7-69.5C475.7,62.4,475.7,32.7,457.4,14.4L457.4,14.4z M378.6,120L201.1,297.5c-1.3,1.3-2.8,2.3-4.4,3
		l-46.6,21.2l21.2-46.6c0.7-1.6,1.8-3.1,3-4.4L351.8,93.2L378.6,120z M152.8,51.2V112H92.1C99.5,104.6,145.4,58.6,152.8,51.2z
		 M360.8,482h-290V142h97c8.3,0,15-6.7,15-15V30h178v12.9c-25.8,24.4,1.7-2.7-151.2,150.1h-89.8c-8.3,0-15,6.7-15,15s6.7,15,15,15
		h59.8l-26.5,26.5c-3.8,3.8-6.9,8.3-9.1,13.2l-37.7,83c-5.7,12.6,7.3,25.6,19.9,19.9l83-37.7c4.9-2.2,9.4-5.3,13.2-9.1
		c0.1,0-1.1,1.1,15.8-15.8h73.8c8.3,0,15-6.7,15-15s-6.7-15-15-15h-43.8l92.8-92.8V482z M436.2,59.7c-0.2,0.2-2.7,2.9-36.7,38.8
		l-26.2-26.2c43.2-40.8,38.4-36.3,38.8-36.7c3.2-3.2,7.5-5,12-5C439.3,30.7,446.8,49.1,436.2,59.7z"/>
</g>
</svg>
