<?xml version="1.0" encoding="utf-8"?>
<!-- Generator: Adobe Illustrator 22.0.1, SVG Export Plug-In . SVG Version: 6.00 Build 0)  -->
<svg version="1.1" id="Layer_1" xmlns="http://www.w3.org/2000/svg" xmlns:xlink="http://www.w3.org/1999/xlink" x="0px" y="0px"
	 viewBox="0 0 512 512" style="enable-background:new 0 0 512 512;" xml:space="preserve">
<style type="text/css">
	.st0{fill:#b8481b;}
</style>
<path class="st0" d="M512,277.3c0-20.1-13.6-37-32-42.3c1.8-4.8,2.9-10.1,2.9-15.6c0-24.2-19.7-43.9-43.9-43.9h-4V37
	c0-8.3-6.7-15-15-15H248.2c-8.3,0-15,6.7-15,15v31.2h-36.2c-8.3,0-15,6.7-15,15v91.6l-60.7,5.8c-0.5-7.9-7-14.1-15-14.1H15
	c-8.3,0-15,6.7-15,15v268.7c0,8.3,6.7,15,15,15h91.4c8.3,0,15-6.7,15-15v-4.9h60.7V476c0,8.3,6.7,15,15,15h171.7c8.3,0,15-6.7,15-15
	v-31.2h36.2c5.8,0,10.9-3.3,13.3-8.2c22.4-2,40.1-20.8,40.1-43.7c0-6.2-1.3-12-3.6-17.4c15.8-6.7,26.9-22.3,26.9-40.5
	c0-7.5-1.9-14.5-5.2-20.7C503.8,306.6,512,292.9,512,277.3z M468.1,291.2h-33.2v-27.8h33.2c7.7,0,13.9,6.2,13.9,13.9
	C482,284.9,475.8,291.2,468.1,291.2z M466.7,335.1c0,7.7-6.2,13.9-13.9,13.9h-17.8v-27.8h17.8C460.4,321.2,466.7,327.4,466.7,335.1z
	 M439,205.5c7.7,0,13.9,6.2,13.9,13.9s-6.2,13.9-13.9,13.9h-4v-27.8L439,205.5L439,205.5z M404.9,52v362.8H263.2v-127l10.6,4v59.5
	c0,8.3,6.7,15,15,15c5.2,0,9.5,5,9.5,11.1c0,8.3,6.7,15,15,15h41.5c8.3,0,15-6.7,15-15c0-6.1,4.3-11.1,9.5-11.1c8.3,0,15-6.7,15-15
	v-69.2c0-5.2-2.7-10.1-7.2-12.8c-4.5-2.7-10-2.9-14.7-0.5c-3.3,1.7-6.7,3.1-10.3,4.4c3-10.5,2.4-21.7-1.8-31.9
	c-5-12-14.8-21.5-27.6-27L299,196.4c10.5-4.8,22.6-7.3,35.1-7.3c13.9,0,27.1,3.1,38.4,8.9c2.2,1.1,4.5,1.7,6.9,1.7
	c2.7,0,5.4-0.7,7.8-2.2c4.5-2.7,7.2-7.6,7.2-12.8v-69.2c0-8.3-6.7-15-15-15c-5.2,0-9.5-5-9.5-11.1c0-8.3-6.7-15-15-15h-41.5
	c-8.3,0-15,6.7-15,15c0,6.1-4.3,11.1-9.5,11.1c-8.3,0-15,6.7-15,15v67.6l-8.4-4.5c-0.7-0.4-1.4-0.7-2.2-1.1V52H404.9z M303.8,303.9
	c9.7,2.5,19.9,3.9,30.3,3.9s20.6-1.3,30.3-3.9v35.5c-9.9,4.3-17.8,12.6-21.8,23h-17c-3.9-10.4-11.8-18.8-21.8-23V303.9z M303.8,163
	v-35.5c9.9-4.3,17.8-12.6,21.8-23h17c3.9,10.4,11.8,18.8,21.8,23V163c-9.7-2.6-19.9-3.9-30.3-3.9S313.5,160.4,303.8,163z
	 M212.1,98.2h21.2v49.2c-6.1,1.9-10.6,7.6-10.6,14.3v9.2l-10.6,1V98.2z M91.4,435.2H30V196.5h61.4v0.5v0V435.2z M121.4,415.3V210.7
	l105.3-10.1c0.1,0,0.2,0,0.2,0c8.5-0.9,16.9,0.7,24.4,4.6l68,36c0.4,0.2,0.9,0.4,1.4,0.6c12.6,5.1,15.2,16.2,12.2,24.3
	c-1.4,3.9-6.2,12.5-20.2,8.3l-54.8-20.6c-17.6-6.5-37.8-4.1-52.8,6.3c-14.6,10.1-22.6,26.5-22.6,46.2c0,10.3-6.7,23.7-13.9,23.7
	c-8.3,0-15,6.7-15,15s6.7,15,15,15c4.6,0,9.1-0.9,13.4-2.5v58H121.4z M353.8,461H212.1V315.8c0-0.5,0-1-0.1-1.5
	c0.4-2.7,0.6-5.4,0.6-8c0-9.8,3.3-17.1,9.7-21.6c3.2-2.2,7-3.6,10.9-4.2V314c-1.2,0.4-2.3,0.9-3.4,1.5c-4.5,2.7-7.2,7.6-7.2,12.8
	v69.2c0,6.8,4.5,12.5,10.6,14.3v18c0,8.3,6.7,15,15,15h105.5V461z M434.9,405.7v-25.6c4.9,2.1,8.4,7.1,8.4,12.8
	S439.9,403.6,434.9,405.7z"/>
</svg>
