<?xml version="1.0" encoding="UTF-8" ?>
<!DOCTYPE svg PUBLIC "-//W3C//DTD SVG 1.1//EN" "http://www.w3.org/Graphics/SVG/1.1/DTD/svg11.dtd">
<svg width="16pt" height="21pt" viewBox="0 0 16 21" version="1.1" xmlns="http://www.w3.org/2000/svg">
<g id="#007b00d7">
<path fill="#007b00" opacity="0.84" d=" M 6.11 0.00 L 9.90 0.00 C 12.90 0.94 15.12 3.33 16.00 6.34 L 16.00 10.31 C 14.61 14.60 11.47 17.99 8.24 21.00 L 7.78 21.00 C 4.53 18.01 1.43 14.62 0.00 10.34 L 0.00 6.34 C 0.88 3.33 3.10 0.94 6.11 0.00 M 2.83 4.99 C 0.03 9.99 4.50 15.09 8.08 18.24 C 11.34 14.97 15.67 10.48 13.46 5.48 C 11.60 1.16 5.03 0.81 2.83 4.99 Z" />
<path fill="#007b00" opacity="0.84" d=" M 6.06 4.05 C 10.50 1.87 14.66 8.08 11.47 11.54 C 9.48 14.47 4.47 13.38 3.69 9.99 C 2.90 7.74 4.03 5.19 6.06 4.05 M 6.34 6.27 C 3.90 8.52 6.81 12.62 9.65 10.65 C 12.09 8.42 9.19 4.29 6.34 6.27 Z" />
</g>
</svg>
