<?xml version="1.0" encoding="UTF-8" ?>
<!DOCTYPE svg PUBLIC "-//W3C//DTD SVG 1.1//EN" "http://www.w3.org/Graphics/SVG/1.1/DTD/svg11.dtd">
<svg width="40pt" height="40pt" viewBox="0 0 40 40" version="1.1" xmlns="http://www.w3.org/2000/svg">
<g id="#009200ff">
<path fill="#009200" opacity="1.00" d=" M 7.53 0.00 L 32.25 0.00 C 33.29 0.87 34.86 1.54 35.08 3.05 C 35.61 6.93 35.25 10.87 35.29 14.78 C 36.89 16.38 38.50 17.96 40.00 19.65 L 40.00 38.30 C 38.77 38.09 38.15 38.66 38.13 40.00 L 1.65 40.00 C 1.93 38.61 1.38 38.05 0.00 38.30 L 0.00 19.66 C 1.50 17.97 3.11 16.38 4.71 14.78 C 4.75 10.88 4.39 6.95 4.92 3.06 C 5.16 1.65 6.61 0.95 7.53 0.00 M 7.10 4.89 C 6.95 10.48 7.11 16.08 7.07 21.67 C 11.38 23.81 15.70 25.94 20.00 28.09 C 24.30 25.94 28.62 23.81 32.93 21.68 C 32.89 16.08 33.05 10.48 32.89 4.88 C 33.06 3.66 32.26 2.33 30.91 2.44 C 23.64 2.32 16.35 2.32 9.08 2.44 C 7.73 2.33 6.94 3.67 7.10 4.89 M 3.44 19.10 C 3.79 22.47 6.25 17.32 3.44 19.10 M 35.16 19.00 C 35.09 22.39 38.17 17.65 35.16 19.00 M 2.37 22.04 C 2.57 27.16 1.96 32.33 2.67 37.41 C 14.20 37.77 25.81 37.79 37.33 37.39 C 38.04 32.32 37.43 27.15 37.63 22.04 C 31.75 24.96 25.89 27.89 20.00 30.78 C 14.11 27.89 8.25 24.96 2.37 22.04 Z" />
<path fill="#009200" opacity="1.00" d=" M 10.82 12.00 C 11.96 6.59 18.37 3.29 23.45 5.45 C 28.06 7.11 31.19 13.26 28.40 17.63 C 27.18 19.45 24.96 18.68 23.29 18.09 C 20.89 19.12 17.64 19.43 16.06 16.88 C 13.59 13.61 17.03 8.48 21.02 9.61 C 24.69 10.21 24.44 14.54 26.06 17.03 C 29.05 12.43 24.13 6.31 19.03 7.31 C 13.92 7.79 11.08 14.55 14.45 18.49 C 16.64 21.66 20.77 21.21 24.11 20.94 C 24.31 23.77 21.06 23.67 19.06 23.59 C 13.54 23.22 9.34 17.34 10.82 12.00 M 18.46 12.48 C 15.94 14.54 19.73 18.12 21.75 15.78 C 23.76 13.75 20.46 10.49 18.46 12.48 Z" />
</g>
</svg>
