<?xml version="1.0" encoding="UTF-8" ?>
<!DOCTYPE svg PUBLIC "-//W3C//DTD SVG 1.1//EN" "http://www.w3.org/Graphics/SVG/1.1/DTD/svg11.dtd">
<svg width="41pt" height="49pt" viewBox="0 0 41 49" version="1.1" xmlns="http://www.w3.org/2000/svg">
<g id="#009200ff">
<path fill="#009200" opacity="1.00" d=" M 11.55 0.00 L 32.83 0.00 C 33.44 1.57 34.03 1.57 34.59 0.00 L 37.89 0.00 C 38.84 1.05 39.79 2.14 41.00 2.91 L 41.00 5.81 C 38.95 9.08 36.00 11.64 33.38 14.44 C 33.29 25.96 33.55 37.48 33.23 49.00 L 0.00 49.00 L 0.00 11.60 C 3.73 7.62 7.62 3.78 11.55 0.00 M 13.57 2.88 C 13.33 6.26 14.06 9.83 13.20 13.10 C 10.09 14.32 6.26 13.31 2.88 13.63 C 2.87 24.46 2.87 35.29 2.88 46.12 C 12.06 46.13 21.24 46.12 30.42 46.12 C 30.46 36.54 30.44 26.95 30.43 17.36 C 27.53 20.26 24.68 23.21 21.75 26.08 C 23.71 26.18 28.63 25.33 26.89 28.79 C 24.25 29.17 21.58 28.97 18.93 29.02 C 16.37 31.79 12.69 32.89 9.39 34.47 C 8.18 35.30 6.74 35.23 5.78 34.07 C 7.93 29.68 9.14 24.56 13.12 21.37 C 10.84 20.94 5.57 22.85 6.14 18.99 C 9.26 17.80 12.75 18.70 16.02 18.44 C 20.96 13.39 26.14 8.57 30.92 3.35 C 25.21 2.33 19.34 3.12 13.57 2.88 M 31.74 6.96 C 32.72 7.58 33.96 10.11 35.15 8.33 C 36.26 6.87 39.08 5.45 37.67 3.36 C 35.13 2.14 33.56 5.72 31.74 6.96 M 4.98 10.68 C 6.86 10.68 8.74 10.68 10.62 10.68 C 10.62 8.80 10.62 6.92 10.63 5.04 C 8.74 6.92 6.85 8.80 4.98 10.68 M 13.80 24.86 C 12.15 26.44 11.41 28.66 10.50 30.70 C 12.55 29.78 14.79 29.02 16.36 27.32 C 21.61 22.03 26.89 16.77 32.11 11.46 C 31.28 10.63 30.45 9.80 29.62 8.97 C 24.41 14.32 19.06 19.55 13.80 24.86 Z" />
<path fill="#009200" opacity="1.00" d=" M 17.18 40.21 C 20.34 39.66 23.74 39.59 26.88 40.25 L 27.40 41.18 C 27.21 41.55 26.85 42.29 26.66 42.66 C 23.54 42.93 20.37 42.99 17.26 42.61 C 17.24 42.01 17.20 40.81 17.18 40.21 Z" />
</g>
</svg>
