<?xml version="1.0" encoding="UTF-8" ?>
<!DOCTYPE svg PUBLIC "-//W3C//DTD SVG 1.1//EN" "http://www.w3.org/Graphics/SVG/1.1/DTD/svg11.dtd">
<svg width="43pt" height="41pt" viewBox="0 0 43 41" version="1.1" xmlns="http://www.w3.org/2000/svg">
<g id="#009200fe">
<path fill="#009200" opacity="1.00" d=" M 0.00 0.00 L 11.58 0.00 C 13.31 1.50 14.91 3.14 16.53 4.75 C 20.11 3.58 23.89 3.05 27.64 3.58 C 28.88 2.38 30.09 1.16 31.37 0.00 L 43.00 0.00 L 43.00 18.75 C 41.08 19.93 39.23 21.23 37.53 22.71 C 38.65 24.36 40.66 25.77 40.58 27.97 C 40.44 29.76 38.70 30.65 37.55 31.76 C 36.32 33.02 35.09 34.28 33.85 35.53 C 32.66 37.34 30.90 38.51 28.79 38.97 C 27.95 39.66 27.10 40.33 26.25 41.00 L 24.16 41.00 C 21.51 39.55 18.72 38.37 16.15 36.77 C 14.16 36.04 12.43 34.83 11.14 33.14 C 9.94 31.96 8.75 30.76 7.57 29.56 C 4.99 28.07 4.04 25.41 4.92 22.56 C 3.34 21.18 1.67 19.93 0.00 18.67 L 0.00 0.00 M 2.57 2.59 C 2.56 6.81 2.56 11.03 2.57 15.25 C 6.05 11.77 9.58 8.34 13.05 4.85 C 10.59 1.39 6.14 2.77 2.57 2.59 M 30.37 5.22 C 33.73 8.56 37.06 11.92 40.42 15.25 C 40.45 11.02 40.44 6.79 40.43 2.57 C 37.97 2.57 35.51 2.56 33.06 2.56 C 32.16 3.44 31.27 4.33 30.37 5.22 M 19.82 7.87 C 17.01 10.69 16.83 14.64 17.57 18.33 C 18.67 17.49 19.99 16.67 19.76 15.05 C 19.73 12.67 20.99 10.66 22.17 8.70 C 27.47 11.82 31.05 17.12 35.64 21.15 C 36.79 19.98 37.95 18.82 39.12 17.66 C 35.33 13.86 31.52 10.07 27.73 6.27 C 25.05 6.17 21.41 4.88 19.82 7.87 M 14.42 7.12 C 10.89 10.70 7.29 14.21 3.76 17.79 C 4.83 18.85 5.90 19.91 6.96 20.98 C 8.44 20.07 10.06 18.54 11.94 19.35 C 13.43 19.70 13.97 21.27 14.82 22.35 C 16.33 23.24 17.60 24.41 18.47 25.94 C 19.90 26.84 21.11 27.99 21.98 29.44 C 24.83 31.15 26.77 33.91 29.33 35.98 C 29.70 35.91 30.44 35.76 30.81 35.69 C 30.80 32.78 27.41 31.34 25.78 29.24 C 24.51 28.15 21.47 25.15 24.82 24.76 C 27.84 27.12 30.12 30.27 33.15 32.62 C 33.52 32.26 34.26 31.53 34.63 31.16 C 32.36 28.19 29.24 26.00 26.96 23.05 C 27.22 22.61 27.74 21.73 28.00 21.29 C 31.52 23.40 33.88 26.92 37.12 29.42 C 37.80 28.31 38.24 26.91 36.90 26.09 C 32.23 21.44 27.57 16.78 22.88 12.14 C 22.42 14.27 22.59 16.63 21.50 18.56 C 20.05 20.70 17.21 20.50 14.94 20.40 C 14.88 16.02 13.53 11.08 16.92 7.53 C 16.29 7.43 15.05 7.22 14.42 7.12 M 9.47 22.53 C 8.33 23.46 5.87 25.41 8.00 26.75 C 9.62 25.94 13.69 23.18 10.84 21.58 C 10.49 21.82 9.81 22.29 9.47 22.53 M 13.56 25.58 C 12.36 26.53 11.37 27.72 10.45 28.95 C 12.17 32.95 18.23 24.31 13.56 25.58 M 17.41 28.91 C 16.15 29.82 15.05 30.94 14.16 32.21 C 14.96 36.59 21.92 28.65 17.41 28.91 M 21.14 31.96 C 20.29 32.97 19.42 33.97 18.64 35.04 C 19.87 37.78 21.67 34.70 23.08 33.83 C 22.40 33.23 21.76 32.61 21.14 31.96 M 24.37 35.70 C 22.58 36.23 23.34 39.22 25.20 38.61 C 27.19 38.25 26.27 34.93 24.37 35.70 Z" />
</g>
</svg>
