<?xml version="1.0" encoding="UTF-8" ?>
<!DOCTYPE svg PUBLIC "-//W3C//DTD SVG 1.1//EN" "http://www.w3.org/Graphics/SVG/1.1/DTD/svg11.dtd">
<svg width="56pt" height="49pt" viewBox="0 0 56 49" version="1.1" xmlns="http://www.w3.org/2000/svg">
<g id="#008a00f1">
<path fill="#008a00" opacity="0.95" d=" M 9.60 0.00 L 22.84 0.00 C 23.19 1.38 23.49 2.76 23.74 4.16 C 23.23 4.60 22.22 5.47 21.71 5.90 C 21.72 6.63 21.73 8.10 21.73 8.83 C 23.91 8.86 26.13 9.11 27.76 10.72 C 32.02 11.32 37.07 9.39 40.56 12.65 C 44.35 10.42 47.87 7.73 51.77 5.70 C 53.30 4.68 54.74 6.14 56.00 6.87 L 56.00 10.10 C 50.55 14.49 44.36 17.87 38.55 21.76 C 42.53 23.29 46.34 25.94 47.86 30.10 C 50.15 35.39 48.28 41.58 44.28 45.49 C 47.04 45.19 49.89 44.59 52.66 45.23 C 53.95 46.32 54.89 47.74 56.00 49.00 L 53.55 49.00 C 53.11 48.48 52.22 47.44 51.78 46.92 C 47.10 46.84 42.49 47.60 37.90 48.42 C 33.89 49.26 29.98 47.63 26.04 47.11 C 23.43 46.98 21.83 44.75 20.06 43.15 C 18.73 43.84 17.57 45.25 15.96 45.12 C 14.23 45.26 13.40 43.55 12.35 42.51 C 10.87 42.85 9.40 43.21 7.94 43.62 C 6.70 47.14 3.17 47.22 0.00 47.00 L 0.00 45.76 C 2.98 41.35 3.23 35.80 5.02 30.89 C 3.35 30.69 1.67 30.49 0.00 30.29 L 0.00 17.20 C 0.97 12.04 5.83 8.75 10.91 8.71 C 10.85 7.67 10.79 6.64 10.73 5.60 C 10.24 5.27 9.26 4.61 8.78 4.28 C 9.00 2.85 9.25 1.41 9.60 0.00 M 10.88 1.88 C 10.92 2.29 11.00 3.12 11.04 3.54 C 14.64 3.54 18.24 3.55 21.84 3.49 C 21.74 3.17 21.55 2.53 21.45 2.21 C 18.08 1.36 14.37 2.10 10.88 1.88 M 12.75 5.47 C 12.74 6.35 12.73 8.11 12.72 9.00 C 15.08 8.99 17.45 8.99 19.81 8.99 C 19.81 8.11 19.81 6.36 19.81 5.48 C 17.45 5.47 15.10 5.46 12.75 5.47 M 49.47 9.29 C 49.86 9.82 50.64 10.89 51.04 11.42 C 52.07 10.55 53.63 10.12 54.18 8.79 C 53.93 5.54 50.91 8.62 49.47 9.29 M 4.93 12.45 C 11.58 12.67 18.24 12.39 24.90 12.64 C 25.10 12.24 25.49 11.45 25.68 11.05 C 20.45 10.85 15.20 10.90 9.96 10.95 C 8.14 10.84 6.52 11.70 4.93 12.45 M 36.25 17.55 C 36.98 18.25 37.71 18.96 38.43 19.67 C 41.98 17.16 45.70 14.90 49.31 12.49 C 48.95 11.95 48.22 10.88 47.85 10.34 C 43.99 12.75 40.23 15.33 36.25 17.55 M 26.63 12.87 C 27.63 15.84 27.12 19.57 23.48 20.17 C 24.45 21.96 25.10 23.89 25.59 25.87 C 27.88 23.93 26.27 19.68 29.55 18.54 C 33.03 17.61 36.51 15.96 38.77 13.05 C 34.75 12.41 30.67 12.59 26.63 12.87 M 3.14 14.43 C 1.96 16.65 1.79 19.15 1.84 21.61 C 3.33 21.60 4.82 21.59 6.31 21.58 C 8.95 16.80 14.92 14.97 19.92 17.00 C 19.93 16.36 19.94 15.08 19.95 14.45 C 14.35 14.46 8.74 14.49 3.14 14.43 M 22.16 15.10 C 20.33 16.95 24.15 19.38 24.94 17.00 C 26.22 15.35 23.32 13.48 22.16 15.10 M 13.27 18.38 C 7.88 19.62 5.41 26.84 9.01 31.09 C 12.52 35.97 21.08 34.70 22.89 28.92 C 25.38 23.15 19.21 16.45 13.27 18.38 M 28.77 22.98 C 31.11 22.17 33.54 21.64 36.02 21.48 C 36.04 21.09 36.07 20.31 36.09 19.92 C 33.37 19.93 29.05 19.08 28.77 22.98 M 1.87 23.49 C 1.88 25.25 1.87 27.01 1.86 28.78 C 2.78 28.79 4.61 28.83 5.53 28.85 C 5.48 27.04 5.48 25.23 5.53 23.42 C 4.61 23.44 2.79 23.47 1.87 23.49 M 30.47 24.52 C 26.09 26.42 23.17 31.20 23.59 35.99 C 23.89 42.46 30.34 47.71 36.73 46.72 C 43.54 45.99 48.60 38.50 46.44 31.94 C 44.72 25.34 36.65 21.53 30.47 24.52 M 7.05 35.47 C 8.53 34.97 8.54 32.11 7.01 31.71 C 5.61 32.25 5.51 35.07 7.05 35.47 M 9.59 34.53 C 8.95 36.86 8.32 39.19 7.72 41.53 C 10.74 40.42 14.39 40.05 16.00 43.47 C 17.47 42.50 18.94 40.91 20.89 41.49 C 22.64 42.76 24.12 44.38 25.97 45.51 C 23.32 42.27 21.22 38.40 21.66 34.06 C 18.07 36.53 13.37 36.67 9.59 34.53 M 5.47 41.13 C 6.76 40.31 7.30 37.46 5.77 36.71 C 4.32 37.35 3.84 40.57 5.47 41.13 M 3.34 42.63 C 1.97 43.58 3.23 46.40 4.80 45.10 C 6.20 44.19 4.82 41.33 3.34 42.63 Z" />
<path fill="#008a00" opacity="0.95" d=" M 13.19 20.14 C 17.71 18.32 22.88 22.89 21.57 27.58 C 20.73 32.16 14.47 34.11 11.13 30.91 C 7.49 27.99 8.74 21.52 13.19 20.14 M 13.23 22.23 C 10.30 23.71 10.14 28.35 13.05 29.92 C 15.85 31.84 20.01 29.36 19.81 26.03 C 19.82 22.85 15.99 20.61 13.23 22.23 Z" />
<path fill="#008a00" opacity="0.95" d=" M 14.58 25.27 C 16.22 24.80 16.74 25.38 16.14 27.01 C 14.50 27.47 13.98 26.89 14.58 25.27 Z" />
<path fill="#008a00" opacity="0.95" d=" M 32.44 25.57 C 39.28 23.24 46.78 30.11 45.02 37.14 C 43.89 44.52 33.76 47.79 28.49 42.53 C 22.71 37.75 25.13 27.30 32.44 25.57 M 28.16 30.90 C 30.51 30.39 32.35 31.76 33.96 33.25 C 34.62 32.10 35.29 30.95 35.99 29.82 C 35.49 28.86 34.99 27.90 34.49 26.94 C 32.01 27.60 29.79 28.90 28.16 30.90 M 38.07 29.80 C 37.56 30.89 37.05 31.99 36.53 33.08 C 37.85 33.64 39.24 33.95 40.65 34.19 C 41.18 33.65 42.25 32.55 42.79 32.00 C 41.50 29.68 39.42 28.05 36.98 27.05 C 37.32 27.97 37.70 28.88 38.07 29.80 M 27.20 33.19 C 26.94 35.77 27.55 38.29 29.04 40.42 C 29.12 38.09 30.92 37.02 32.79 36.16 C 32.06 33.65 29.74 32.20 27.20 33.19 M 34.44 34.37 C 33.91 36.01 34.45 36.57 36.09 36.04 C 36.61 34.38 36.06 33.82 34.44 34.37 M 41.23 36.15 C 40.32 36.07 38.49 35.90 37.58 35.81 C 37.53 37.19 37.60 38.58 37.74 39.95 C 38.72 40.41 39.70 40.87 40.69 41.33 C 42.34 39.34 43.33 36.97 43.44 34.37 C 42.89 34.81 41.78 35.70 41.23 36.15 M 31.37 39.14 C 31.26 39.88 31.05 41.36 30.95 42.10 C 33.33 43.25 35.95 43.25 38.52 42.95 C 37.70 42.31 36.87 41.69 36.04 41.06 C 35.92 40.25 35.69 38.63 35.57 37.82 C 34.06 37.84 32.68 38.45 31.37 39.14 Z" />
</g>
</svg>
