<?xml version="1.0" encoding="UTF-8" ?>
<!DOCTYPE svg PUBLIC "-//W3C//DTD SVG 1.1//EN" "http://www.w3.org/Graphics/SVG/1.1/DTD/svg11.dtd">
<svg width="52pt" height="34pt" viewBox="0 0 52 34" version="1.1" xmlns="http://www.w3.org/2000/svg">
<g id="#009200ff">
<path fill="#009200" opacity="1.00" d=" M 0.26 0.00 L 35.22 0.00 C 35.93 1.26 36.55 2.57 37.16 3.88 C 40.00 3.96 42.90 3.68 45.68 4.34 C 48.56 8.07 49.96 12.72 52.00 16.93 L 52.00 28.88 C 51.58 29.28 50.73 30.06 50.30 30.46 C 49.44 30.56 48.58 30.67 47.73 30.77 C 46.62 31.87 45.52 32.97 44.36 34.00 L 41.54 34.00 C 40.23 32.97 38.99 31.85 37.77 30.71 C 31.89 30.56 26.00 30.60 20.11 30.69 C 18.97 31.82 17.83 32.95 16.61 34.00 L 13.81 34.00 C 12.56 33.02 11.37 31.97 10.18 30.92 C 8.39 30.47 6.09 30.90 4.73 29.44 C 3.92 27.67 4.19 25.63 3.96 23.75 C 2.63 23.21 1.30 22.68 0.00 22.06 L 0.00 0.39 C 0.07 0.29 0.20 0.10 0.26 0.00 M 3.06 3.06 C 3.06 8.79 3.06 14.52 3.06 20.25 C 13.21 20.25 23.35 20.24 33.49 20.25 C 33.51 14.52 33.50 8.80 33.50 3.07 C 23.36 3.05 13.21 3.06 3.06 3.06 M 36.63 7.00 C 36.67 13.97 36.53 20.93 36.71 27.90 C 38.45 26.90 40.12 25.78 41.92 24.88 C 44.64 24.20 46.49 26.75 48.44 28.13 C 49.09 25.06 49.00 21.93 48.94 18.82 C 46.11 18.75 43.22 19.13 40.44 18.48 C 38.49 17.06 39.32 14.12 39.32 12.05 C 39.66 9.15 43.41 10.29 45.38 9.87 C 44.91 8.92 44.44 7.96 43.98 7.00 C 41.53 7.00 39.08 7.00 36.63 7.00 M 42.35 13.14 C 42.36 13.78 42.38 15.05 42.38 15.68 C 44.26 15.69 46.15 15.69 48.03 15.69 C 47.63 14.83 47.22 13.97 46.82 13.11 C 45.33 13.12 43.84 13.13 42.35 13.14 M 7.19 23.31 C 7.19 24.76 7.19 26.21 7.19 27.66 C 9.91 27.99 11.85 26.21 14.00 24.92 C 16.36 24.16 18.18 26.02 19.73 27.46 C 24.32 27.54 28.90 27.49 33.49 27.50 C 33.50 26.46 33.50 24.37 33.51 23.32 C 24.74 23.30 15.96 23.32 7.19 23.31 M 14.26 28.28 C 12.73 29.30 14.52 31.74 15.95 30.58 C 17.49 29.56 15.69 27.12 14.26 28.28 M 41.61 28.60 C 40.13 30.07 43.70 32.27 44.17 29.90 C 45.21 28.40 42.37 27.09 41.61 28.60 Z" />
<path fill="#009200" opacity="1.00" d=" M 6.92 5.94 C 7.41 6.03 8.40 6.21 8.89 6.30 C 9.67 9.82 9.49 13.53 8.99 17.07 L 7.85 17.44 C 7.48 17.25 6.75 16.88 6.38 16.69 C 6.21 13.15 5.50 9.28 6.92 5.94 Z" />
<path fill="#009200" opacity="1.00" d=" M 13.86 5.90 C 14.37 5.99 15.38 6.18 15.89 6.28 C 16.63 9.75 16.56 13.44 15.95 16.92 L 14.92 17.50 C 14.54 17.33 13.77 16.99 13.39 16.82 C 13.19 13.22 12.56 9.35 13.86 5.90 Z" />
<path fill="#009200" opacity="1.00" d=" M 20.29 7.07 C 20.10 5.51 23.39 5.18 23.09 7.09 C 23.42 10.33 23.48 13.64 22.92 16.85 C 22.26 16.90 20.94 17.01 20.28 17.06 C 20.19 13.73 20.02 10.39 20.29 7.07 Z" />
<path fill="#009200" opacity="1.00" d=" M 27.92 5.83 C 28.42 5.94 29.43 6.17 29.93 6.28 C 30.46 9.77 30.52 13.40 29.91 16.89 L 28.90 17.44 C 28.52 17.27 27.76 16.95 27.38 16.79 C 27.14 13.19 26.39 9.21 27.92 5.83 Z" />
</g>
</svg>
